HIERARCHY
ROOT joint_Root
{
	OFFSET 0.0 0.0 0.0
	CHANNELS 6 Xposition Yposition Zposition Zrotation Xrotation Yrotation 
	JOINT Hips
	{
		OFFSET -0.726466 93.3139 -2.00062
		CHANNELS 6 Xposition Yposition Zposition Zrotation Xrotation Yrotation 
		JOINT Spine
		{
			OFFSET 15.7357 0.0 0.0
			CHANNELS 6 Xposition Yposition Zposition Zrotation Xrotation Yrotation 
			JOINT Chest
			{
				OFFSET 8.98455 -0.406207 0.0
				CHANNELS 6 Xposition Yposition Zposition Zrotation Xrotation Yrotation 
				JOINT Neck
				{
					OFFSET 16.3773 0.0 0.0
					CHANNELS 6 Xposition Yposition Zposition Zrotation Xrotation Yrotation 
					JOINT Head
					{
						OFFSET 6.45672 0.0 0.0
						CHANNELS 6 Xposition Yposition Zposition Zrotation Xrotation Yrotation 
						End Site
						{
							OFFSET 0.0 0.0 0.0
						}
					}
				}
				JOINT Shoulder_L
				{
					OFFSET 12.9942 -0.242716 4.98039
					CHANNELS 6 Xposition Yposition Zposition Zrotation Xrotation Yrotation 
					JOINT UpperArm_L
					{
						OFFSET 5.34809 0.0 0.0
						CHANNELS 6 Xposition Yposition Zposition Zrotation Xrotation Yrotation 
						JOINT LowerArm_L
						{
							OFFSET 24.3286 1.87007e-05 0.0
							CHANNELS 6 Xposition Yposition Zposition Zrotation Xrotation Yrotation 
							JOINT Hand_L
							{
								OFFSET 22.2916 0.0 0.0
								CHANNELS 6 Xposition Yposition Zposition Zrotation Xrotation Yrotation 
								End Site
								{
									OFFSET 0.0 0.0 0.0
								}
							}
						}
					}
				}
				JOINT Shoulder_R
				{
					OFFSET 12.9945 -0.242716 -4.98039
					CHANNELS 6 Xposition Yposition Zposition Zrotation Xrotation Yrotation 
					JOINT UpperArm_R
					{
						OFFSET -5.34813 0.0 0.0
						CHANNELS 6 Xposition Yposition Zposition Zrotation Xrotation Yrotation 
						JOINT LowerArm_R
						{
							OFFSET -24.3289 0.000322201 0.0
							CHANNELS 6 Xposition Yposition Zposition Zrotation Xrotation Yrotation 
							JOINT Hand_R
							{
								OFFSET -22.2915 -0.000108084 0.0
								CHANNELS 6 Xposition Yposition Zposition Zrotation Xrotation Yrotation 
								End Site
								{
									OFFSET 0.0 0.0 0.0
								}
							}
						}
					}
				}
			}
		}
		JOINT UpperLeg_L
		{
			OFFSET -2.19248 -6.46944 0.0
			CHANNELS 6 Xposition Yposition Zposition Zrotation Xrotation Yrotation 
			JOINT LowerLeg_L
			{
				OFFSET 39.0811 0.0 -1.23785e-05
				CHANNELS 6 Xposition Yposition Zposition Zrotation Xrotation Yrotation 
				JOINT Foot_L
				{
					OFFSET 40.9854 0.0 -1.26872e-05
					CHANNELS 6 Xposition Yposition Zposition Zrotation Xrotation Yrotation 
					JOINT Toes_L
					{
						OFFSET 11.7543 0.0 0.0
						CHANNELS 6 Xposition Yposition Zposition Zrotation Xrotation Yrotation 
						End Site
						{
							OFFSET 0.0 0.0 0.0
						}
					}
				}
			}
		}
		JOINT UpperLeg_R
		{
			OFFSET -2.19251 6.46944 0.0
			CHANNELS 6 Xposition Yposition Zposition Zrotation Xrotation Yrotation 
			JOINT LowerLeg_R
			{
				OFFSET -39.0811 -0.00228153 -0.0401928
				CHANNELS 6 Xposition Yposition Zposition Zrotation Xrotation Yrotation 
				JOINT Foot_R
				{
					OFFSET -40.9854 0.0 0.0
					CHANNELS 6 Xposition Yposition Zposition Zrotation Xrotation Yrotation 
					JOINT Toes_R
					{
						OFFSET -11.7543 0.0 0.0
						CHANNELS 6 Xposition Yposition Zposition Zrotation Xrotation Yrotation 
						End Site
						{
							OFFSET 0.0 0.0 0.0
						}
					}
				}
			}
		}
	}
}
MOTION
Frames:	8
Frame Time:	0.0333333
0.000000 0.000000 0.000000 0.000000 0.000000 -0.000000 104.797000 90.718900 166.542000 -80.680100 28.057500 179.760000 15.735700 0.000005 -0.000001 77.921500 83.120900 -76.513700 8.984550 -0.406207 -0.000000 5.730440 -2.896800 2.957880 16.377300 -0.000001 -0.000001 3.326550 2.708590 -2.520310 6.456720 -0.000001 -0.000000 3.109660 7.065750 -5.310400 12.994200 -0.242716 4.980390 -89.449300 -1.687110 -71.917200 5.348090 -0.000007 -0.000001 -61.972300 46.516700 -32.204300 24.328600 0.000019 0.000005 0.467121 0.579541 -38.852500 22.291600 -0.000001 0.000005 8.247710 5.518300 -7.289200 12.994500 -0.242716 -4.980390 88.487100 4.338690 -70.755200 -5.348130 -0.000001 -0.000004 -70.067500 35.746200 -4.395680 -24.328900 0.000322 -0.000009 4.830890 11.339000 -23.265900 -22.291500 -0.000108 -0.000004 3.221210 5.425030 -3.769150 -2.192480 -6.469440 -0.000000 177.528000 -1.801030 -1.924790 39.081100 -0.000007 -0.000012 -0.061724 0.124729 26.329200 40.985400 -0.000006 -0.000013 12.023100 -1.197250 -70.526200 11.754300 -0.000000 0.000003 -0.001710 -0.025027 -17.594400 -2.192510 6.469440 -0.000001 179.482000 5.647720 162.586000 -39.081100 -0.002282 -0.040193 -0.016242 0.016829 49.194500 -40.985400 0.000008 0.000006 6.058670 -11.312900 -51.119200 -11.754300 -0.000006 -0.000006 -0.027784 -0.207121 -25.053200
0.000000 0.000000 0.000000 0.000000 0.000000 -0.000000 106.520000 90.763500 164.732000 -80.967100 24.632700 179.487000 15.735700 0.000005 -0.000001 76.224700 83.186800 -74.690200 8.984550 -0.406207 -0.000000 5.521090 -3.267120 3.223770 16.377300 -0.000001 -0.000001 2.963780 2.108030 -1.978500 6.456720 -0.000001 -0.000000 2.583810 6.669820 -4.777420 12.994200 -0.242716 4.980390 -89.312300 -2.134670 -72.138100 5.348090 -0.000007 -0.000001 -57.900300 47.916800 -37.537300 24.328600 0.000019 0.000005 0.509739 0.536691 -43.521600 22.291600 -0.000001 0.000005 8.545220 5.541350 -8.302980 12.994500 -0.242716 -4.980390 88.455100 4.333770 -70.358400 -5.348130 -0.000001 -0.000004 -71.710000 33.875600 -1.944400 -24.328900 0.000322 -0.000009 4.703750 12.052800 -21.510700 -22.291500 -0.000108 -0.000004 3.585230 5.421520 -3.649980 -2.192480 -6.469440 -0.000000 178.125000 0.081061 -0.075821 39.081100 -0.000007 -0.000012 -0.063602 0.136557 24.973900 40.985400 -0.000006 -0.000013 11.930100 0.417928 -71.626200 11.754300 -0.000000 0.000003 -0.000567 -0.009055 -16.945300 -2.192510 6.469440 -0.000001 179.120000 3.493210 161.759000 -39.081100 -0.002282 -0.040193 0.001543 0.002084 39.808500 -40.985400 0.000008 0.000006 5.968040 -11.948900 -52.186900 -11.754300 -0.000006 -0.000006 -0.024933 -0.193223 -24.478100
0.000000 0.000000 0.000000 0.000000 0.000000 -0.000000 108.217000 90.614200 162.938000 -81.578600 22.049800 179.133000 15.735700 0.000005 -0.000001 75.315900 83.327100 -73.821700 8.984550 -0.406207 -0.000000 5.197360 -3.409300 3.140520 16.377300 -0.000001 -0.000001 2.594020 1.744790 -1.519870 6.456720 -0.000001 -0.000000 2.003070 6.277510 -4.169380 12.994200 -0.242716 4.980390 -89.158700 -2.635440 -72.287700 5.348090 -0.000007 -0.000001 -54.982800 48.353700 -41.270700 24.328600 0.000019 0.000005 0.756212 0.682017 -47.953100 22.291600 -0.000001 0.000005 8.865710 5.555170 -8.952640 12.994500 -0.242716 -4.980390 88.403000 4.427630 -70.143100 -5.348130 -0.000001 -0.000004 -72.549900 31.855800 -0.611074 -24.328900 0.000322 -0.000009 4.234660 12.393500 -19.038200 -22.291500 -0.000108 -0.000004 3.917570 5.410740 -3.289220 -2.192480 -6.469440 -0.000000 178.584000 0.932019 1.333320 39.081100 -0.000007 -0.000012 -0.081552 0.182243 24.108300 40.985400 -0.000006 -0.000013 11.868300 2.226690 -73.083700 11.754300 -0.000000 0.000003 -0.000264 -0.004326 -16.753200 -2.192510 6.469440 -0.000001 178.583000 3.080050 160.824000 -39.081100 -0.002282 -0.040193 0.012417 -0.015728 30.093400 -40.985400 0.000008 0.000006 4.556830 -9.181070 -52.684500 -11.754300 -0.000006 -0.000006 -0.024379 -0.190437 -24.362900
0.000000 0.000000 0.000000 0.000000 0.000000 -0.000000 109.940000 90.300500 161.024000 -82.186400 19.958100 178.763000 15.735700 0.000005 -0.000001 74.416100 83.453300 -72.954800 8.984550 -0.406207 -0.000000 4.900500 -3.547230 3.071900 16.377300 -0.000001 -0.000001 2.200100 1.504110 -1.283160 6.456720 -0.000001 -0.000000 1.501400 5.953350 -3.676740 12.994200 -0.242716 4.980390 -89.078600 -2.903010 -72.383000 5.348090 -0.000007 -0.000001 -53.179700 48.244100 -43.162800 24.328600 0.000019 0.000005 0.407980 0.320009 -51.910500 22.291600 -0.000001 0.000005 9.135720 5.566580 -9.513170 12.994500 -0.242716 -4.980390 88.369400 4.523320 -70.152100 -5.348130 -0.000001 -0.000004 -72.645900 29.386000 -0.273354 -24.328900 0.000322 -0.000009 3.766830 13.077800 -16.229000 -22.291500 -0.000108 -0.000004 4.374770 5.394200 -2.752170 -2.192480 -6.469440 -0.000000 179.177000 1.137750 2.642470 39.081100 -0.000007 -0.000012 -0.114121 0.261119 23.607600 40.985400 -0.000006 -0.000013 11.835600 4.090680 -74.869900 11.754300 -0.000000 0.000003 -0.000000 -0.000004 -16.577600 -2.192510 6.469440 -0.000001 179.090000 6.937440 160.060000 -39.081100 -0.002282 -0.040193 0.006602 -0.008787 20.477400 -40.985400 0.000008 0.000006 0.702278 -2.061740 -53.281100 -11.754300 -0.000006 -0.000006 -0.025252 -0.194815 -24.543900
0.000000 0.000000 0.000000 0.000000 0.000000 -0.000000 111.773000 89.824400 158.910000 -82.716300 17.950800 178.474000 15.735700 0.000005 -0.000001 73.625400 83.550800 -72.127100 8.984550 -0.406207 -0.000000 4.666610 -3.670180 3.143590 16.377300 -0.000001 -0.000001 1.792240 1.196270 -1.107060 6.456720 -0.000001 -0.000000 1.053510 5.658520 -3.574790 12.994200 -0.242716 4.980390 -89.095900 -2.876890 -72.545800 5.348090 -0.000007 -0.000001 -52.250800 48.078400 -43.706200 24.328600 0.000019 0.000005 -0.254627 -0.179866 -54.721800 22.291600 -0.000001 0.000005 9.870060 5.577550 -10.078700 12.994500 -0.242716 -4.980390 88.323200 4.624210 -70.043100 -5.348130 -0.000001 -0.000004 -72.055000 26.749200 -0.529474 -24.328900 0.000322 -0.000009 3.255600 13.476800 -13.720400 -22.291500 -0.000108 -0.000004 5.232910 5.372810 -2.075560 -2.192480 -6.469440 -0.000000 -179.996000 1.113540 4.131120 39.081100 -0.000007 -0.000012 -0.146074 0.339292 23.293400 40.985400 -0.000006 -0.000013 11.902400 6.182720 -76.976500 11.754300 -0.000000 0.000003 -0.000002 -0.000025 -16.578500 -2.192510 6.469440 -0.000001 -178.346000 15.276400 159.403000 -39.081100 -0.002282 -0.040193 -0.006525 0.047711 11.677900 -40.985400 0.000008 0.000006 -6.072200 7.900440 -52.926200 -11.754300 -0.000006 -0.000006 -0.027200 -0.204330 -24.937600
0.000000 0.000000 0.000000 0.000000 0.000000 -0.000000 113.810000 89.236400 156.388000 -83.323700 15.944700 178.705000 15.735700 0.000005 -0.000001 72.646200 83.489500 -71.121300 8.984550 -0.406207 -0.000000 4.725190 -3.917120 3.209050 16.377300 -0.000001 -0.000001 1.538520 0.949359 -0.931900 6.456720 -0.000001 -0.000000 0.608801 5.412200 -3.606330 12.994200 -0.242716 4.980390 -89.121400 -2.820090 -72.687200 5.348090 -0.000007 -0.000001 -52.332700 47.921600 -43.112500 24.328600 0.000019 0.000005 -0.799685 -0.547120 -55.624700 22.291600 -0.000001 0.000005 10.501500 5.593750 -10.973700 12.994500 -0.242716 -4.980390 88.254600 4.810410 -70.030400 -5.348130 -0.000001 -0.000004 -70.986600 24.185100 -1.181730 -24.328900 0.000322 -0.000009 2.710290 13.368800 -11.574600 -22.291500 -0.000108 -0.000004 6.497090 5.354470 -1.514920 -2.192480 -6.469440 -0.000000 -179.614000 1.600750 7.072970 39.081100 -0.000007 -0.000012 -0.068470 0.170054 21.931600 40.985400 -0.000006 -0.000013 14.074600 6.603600 -79.215600 11.754300 -0.000000 0.000003 -0.000329 -0.005370 -16.795600 -2.192510 6.469440 -0.000001 -176.796000 18.337500 158.474000 -39.081100 -0.002282 -0.040193 -0.008138 0.083460 7.832180 -40.985400 0.000008 0.000006 -9.127100 10.622900 -53.525000 -11.754300 -0.000006 -0.000006 -0.028151 -0.208859 -25.125200
0.000000 0.000000 0.000000 0.000000 0.000000 -0.000000 116.069000 88.780300 153.498000 -83.034300 14.394000 178.852000 15.735700 0.000005 -0.000001 73.240200 83.427900 -71.404900 8.984550 -0.406207 -0.000000 4.892620 -3.828940 3.831040 16.377300 -0.000001 -0.000001 1.575470 0.768583 -0.801820 6.456720 -0.000001 -0.000000 0.209146 5.208240 -3.622790 12.994200 -0.242716 4.980390 -89.232700 -2.490800 -72.872200 5.348090 -0.000007 -0.000001 -53.019500 47.819600 -41.734400 24.328600 0.000019 0.000005 -0.812954 -0.586500 -54.210100 22.291600 -0.000001 0.000005 11.001300 5.600520 -11.371600 12.994500 -0.242716 -4.980390 88.095700 5.271730 -70.106400 -5.348130 -0.000001 -0.000004 -69.388500 22.166800 -2.413360 -24.328900 0.000322 -0.000009 2.171440 13.144100 -9.471300 -22.291500 -0.000108 -0.000004 8.166650 5.341310 -1.119080 -2.192480 -6.469440 -0.000000 -178.022000 1.779410 8.338480 39.081100 -0.000007 -0.000012 -0.014531 0.032967 23.785900 40.985400 -0.000006 -0.000013 14.288300 7.948500 -78.974600 11.754300 -0.000000 0.000003 -0.991775 -1.174880 -19.592900 -2.192510 6.469440 -0.000001 -174.741000 17.799300 155.102000 -39.081100 -0.002282 -0.040193 -0.002466 0.024686 13.220000 -40.985400 0.000008 0.000006 -2.360940 6.779260 -54.239900 -11.754300 -0.000006 -0.000006 -0.027636 -0.206419 -25.024100
0.000000 0.000000 0.000000 0.000000 0.000000 -0.000000 118.419000 88.372100 150.029000 -82.157000 12.851600 179.084000 15.735700 0.000005 -0.000001 73.439900 83.420500 -71.075700 8.984550 -0.406207 -0.000000 4.938790 -3.801520 4.888490 16.377300 -0.000001 -0.000001 1.927160 0.703842 -0.816751 6.456720 -0.000001 -0.000000 0.285147 5.052020 -3.624690 12.994200 -0.242716 4.980390 -89.411800 -1.906420 -72.848400 5.348090 -0.000007 -0.000001 -53.935500 48.116200 -39.784100 24.328600 0.000019 0.000005 -1.022970 -0.842746 -50.525700 22.291600 -0.000001 0.000005 10.832800 5.597220 -11.176200 12.994500 -0.242716 -4.980390 87.931000 5.736480 -70.128900 -5.348130 -0.000001 -0.000004 -67.637700 21.076900 -3.919230 -24.328900 0.000322 -0.000009 1.691550 12.943800 -7.515120 -22.291500 -0.000108 -0.000004 10.007000 5.324950 -0.642042 -2.192480 -6.469440 -0.000000 -175.706000 1.914220 9.358430 39.081100 -0.000007 -0.000012 0.010520 -0.021070 26.530900 40.985400 -0.000006 -0.000013 13.905000 10.029200 -76.304500 11.754300 -0.000000 0.000003 -0.907551 -1.088390 -26.756600 -2.192510 6.469440 -0.000001 -175.316000 13.114400 153.457000 -39.081100 -0.002282 -0.040193 -0.002117 0.014547 20.495600 -40.985400 0.000008 0.000006 -2.840820 6.373900 -48.614700 -11.754300 -0.000006 -0.000006 -0.032543 -0.228889 -25.956500
